<svg width="32" height="32" viewBox="0 0 32 32" fill="none" xmlns="http://www.w3.org/2000/svg">
  <!-- Background gradient -->
  <defs>
    <linearGradient id="grad" x1="0%" y1="0%" x2="100%" y2="100%">
      <stop offset="0%" style="stop-color:#667eea;stop-opacity:1" />
      <stop offset="100%" style="stop-color:#764ba2;stop-opacity:1" />
    </linearGradient>
  </defs>
  
  <!-- Rounded square background -->
  <rect width="32" height="32" rx="6" fill="url(#grad)"/>
  
  <!-- Heart shape -->
  <path d="M16 26C16 26 6 20 6 13C6 10.2 8.2 8 11 8C13 8 14.5 9 16 10.5C17.5 9 19 8 21 8C23.8 8 26 10.2 26 13C26 20 16 26 16 26Z" 
        fill="white" opacity="0.95"/>
  
  <!-- Accessibility symbol (simplified wheelchair user) -->
  <circle cx="16" cy="14" r="1.5" fill="#667eea"/>
  <path d="M16 15.5C15 15.5 14.5 16 14.5 17L14 19.5C14 20 14.5 20.5 15 20.5C15.5 20.5 16 20 16 19.5L16.5 17C16.5 16 17 15.5 16 15.5Z" 
        fill="#667eea"/>
  <circle cx="16" cy="20.5" r="2.5" stroke="#667eea" stroke-width="1.5" fill="none"/>
</svg>
